<?xml version="1.0" encoding="UTF-8"?>
<!DOCTYPE svg PUBLIC "-//W3C//DTD SVG 1.1//EN" "http://www.w3.org/Graphics/SVG/1.1/DTD/svg11.dtd">
<!-- Creator: CorelDRAW X7 -->
<svg xmlns="http://www.w3.org/2000/svg" xml:space="preserve" width="150px" height="84px" version="1.1" style="shape-rendering:geometricPrecision; text-rendering:geometricPrecision; image-rendering:optimizeQuality; fill-rule:evenodd; clip-rule:evenodd"
viewBox="0 0 4046 2277"
 xmlns:xlink="http://www.w3.org/1999/xlink">
 <defs>
  <style type="text/css">
   <![CDATA[
    .fil0 {fill:#3769B0;fill-rule:nonzero}
   ]]>
  </style>
 </defs>
 <g id="Слой_x0020_1">
  <metadata id="CorelCorpID_0Corel-Layer"/>
  <g id="_2862409781744">
   <path class="fil0" d="M294 0l3459 0c81,0 154,33 207,86 53,53 86,127 86,208l0 1689c0,81 -33,155 -86,208 -53,53 -126,86 -207,86l-3459 0c-81,0 -155,-33 -208,-86 -53,-53 -86,-127 -86,-208l0 -1689c0,-81 33,-155 86,-208 53,-53 127,-86 208,-86zm3459 157l-3459 0c-38,0 -72,15 -97,40 -25,25 -40,59 -40,97l0 1689c0,38 15,72 40,97 25,25 59,40 97,40l3459 0c37,0 72,-15 96,-40 25,-25 41,-59 41,-97l0 -1689c0,-38 -16,-72 -41,-97 -24,-25 -59,-40 -96,-40z"/>
   <path class="fil0" d="M2012 839l0 140c-16,7 -39,7 -59,7 -111,0 -152,-88 -152,-188 0,-218 290,-241 448,-181l1 -157c-129,-58 -369,-59 -496,-12 -139,51 -238,162 -238,332 0,260 193,387 435,387 114,0 205,-12 301,-40l0 -277c21,7 42,15 63,24 64,25 129,51 214,51 84,0 149,-26 213,-51 63,-25 123,-49 200,-49 78,0 137,24 201,49 63,25 129,51 213,51 75,0 135,-20 191,-42l0 -158c-60,23 -117,45 -191,45 -77,0 -137,-24 -200,-49 -64,-25 -130,-51 -214,-51 -84,0 -150,26 -213,51 -63,25 -123,49 -200,49 -78,0 -138,-24 -201,-49 -63,-25 -129,-51 -213,-51 -38,0 -72,5 -103,13l0 156 0 0zm1535 -356c-60,24 -117,45 -191,45 -77,0 -137,-23 -200,-48 -64,-26 -130,-52 -214,-52 -84,0 -150,26 -213,52 -63,25 -123,48 -200,48 -73,0 -130,-20 -189,-44l0 158c56,22 115,42 189,42 84,0 149,-26 213,-52 63,-25 123,-48 200,-48 78,0 137,23 201,48 63,26 129,52 213,52 75,0 135,-21 191,-43l0 -158zm0 483c-60,24 -117,45 -191,45 -77,0 -137,-23 -200,-48 -64,-26 -130,-52 -214,-52 -84,0 -150,26 -213,52 -63,25 -123,48 -200,48 -73,0 -130,-20 -189,-44l0 158c56,22 115,42 189,42 84,0 149,-26 213,-52 63,-25 123,-48 200,-48l4 0 0 778c0,0 1,0 1,0l257 0c0,0 0,0 0,0l0 -338c0,-20 12,-40 30,-47 30,-11 58,15 58,45l0 340c0,0 1,1 1,1l254 0c0,0 0,-1 0,-1l0 -380 0 0c0,-110 -82,-219 -188,-219 -64,0 -120,36 -154,91 0,1 -1,0 -1,0l0 -198c46,16 95,28 152,28 75,0 135,-21 191,-43l0 -158zm-2519 299l-1 0 0 0 0 0 -1 0 -116 -3 -82 237 -16 0 -53 -235 -260 0 154 578 267 1 95 -181 0 0 9 0 3 1 0 0 0 0 1 0 0 0 3 -1 8 0 0 0 95 181 268 -1 153 -578 -260 0 -52 235 -17 0 -82 -237 -116 3 0 0 0 0zm9 -489c25,-9 48,-23 66,-41 33,-33 54,-78 54,-127 0,-99 -82,-180 -183,-180l-471 0 0 704 496 0c51,0 97,-20 130,-53 33,-32 53,-77 53,-127 0,-86 -62,-158 -145,-176l0 0zm-276 -213l69 0c50,0 90,39 90,88 0,48 -40,87 -90,87l-69 0 0 -175 0 0zm69 434l-69 0 0 -176 69 0c50,0 90,40 90,88 0,48 -40,88 -90,88zm388 -454l258 0 0 -112 -258 0 0 112zm258 52l-16 537 -225 0 -17 -537 258 0zm723 1249c-33,-85 -26,-177 -26,-268 0,-90 3,-176 -50,-247 -62,-82 -175,-94 -266,-92 -118,3 -294,45 -294,208 0,4 0,8 0,11l243 0c1,-22 9,-46 22,-63 22,-28 65,-29 85,4 23,37 2,83 -30,102 -32,19 -70,17 -105,20 -92,7 -218,15 -242,136 -11,55 10,120 51,155 56,48 140,57 208,42 58,-13 108,-43 133,-86 4,28 11,55 18,79l253 0 0 -1zm-276 -161c-13,17 -34,26 -56,22 -29,-7 -48,-40 -41,-71 4,-16 14,-28 27,-36 22,-14 47,-24 70,-37l0 122 0 0zm981 -29c-3,180 -213,209 -339,209 -239,0 -345,-79 -360,-181l294 0c-2,25 20,49 51,57 30,7 77,-6 73,-47 -4,-39 -53,-46 -82,-49 -98,-8 -210,-6 -285,-86 0,0 -1,0 -1,-1 -73,-78 -53,-201 33,-259 55,-37 140,-60 259,-60 198,0 294,64 320,151l-253 0c-6,-17 -23,-32 -45,-37 -19,-5 -41,-2 -56,12 -15,15 -15,41 -2,58 15,19 44,23 66,25 127,13 330,18 327,208l0 0z"/>
  </g>
 </g>
</svg>
